<?xml version="1.0" encoding="UTF-8"?>
<svg width="1381px" height="801px" viewBox="0 0 1381 801" version="1.1" xmlns="http://www.w3.org/2000/svg" xmlns:xlink="http://www.w3.org/1999/xlink">
    <title>电脑场景</title>
    <desc>Created with Sketch.</desc>
    <defs>
        <path d="M197.764669,20.8232448 C293.331062,-14.7614396 358.578228,-4.6892714 393.506167,51.0397495 C424.276708,41.7281883 444.656087,52.8401613 454.644304,84.3756685 C505.605381,79.6693078 532.718147,104.726945 535.9826,159.548581 L-4.54747351e-13,161.000954 L197.764669,20.8232448 Z" id="path-1"></path>
        <path d="M0,175.077955 L790.471576,158.192182 C791.202504,132.620576 783.166675,117.280278 766.364088,112.171289 C768.397226,78.8082635 751.593891,53.375678 715.954082,35.8735324 C662.494368,9.62031384 616.977817,63.2499058 616.977817,63.2499058 C595.940037,37.7088814 572.016225,35.0575386 545.206382,55.2958775 C497.292451,-5.57956188 418.988664,-15.6987313 310.295024,24.9383691 C201.601384,65.5754696 98.1697093,115.621998 0,175.077955 Z" id="path-3"></path>
        <path d="M81.2857445,156.769404 L411.298016,1.54221218 C425.934666,-2.69656127 432.060492,1.80237364 429.675493,15.0390169 C427.290495,28.2756602 406.511316,178.009729 367.337955,464.241222 L-1.42108547e-13,518.852828 C32.4485342,320.160183 50.5021341,212.665186 54.1607999,196.367836 C58.1252791,176.649456 67.1669273,163.449978 81.2857445,156.769404 Z" id="path-5"></path>
        <path d="M9.09494702e-13,157.547387 C184.714971,145.744916 307.242152,128.34734 367.58154,105.354657 C458.090624,70.8656324 424.933477,47.8729495 498.960332,70.8656324 C509.086494,52.3049927 525.470732,47.5926576 548.113047,56.7286272 C583.128981,3.26725537 626.303462,-11.7022425 677.636487,11.8201335 C723.252906,-3.71567605 755.74084,5.35753926 775.100291,39.0397795 C804.139466,89.5631398 775.100291,142.195626 621.0665,175.881723 C518.377306,198.339121 311.355139,192.227676 9.09494702e-13,157.547387 Z" id="path-7"></path>
        <path d="M14.3188358,110.931566 C24.8018287,133.038699 42.458515,176.999381 124.772021,251.695723 C153.692973,246.235326 172.659767,234.918453 181.672405,217.745104 C164.633122,133.792485 144.087293,77.4034333 120.034919,48.5779483 C83.9563571,5.3397208 42.4165425,-8.07192428 20.1670019,5.05133286 C-2.08253868,18.17459 -6.79815267,62.3160722 14.3188358,110.931566 Z" id="path-9"></path>
        <polygon id="path-11" points="32.0345737 0.144764138 69.8194685 53.4337948 63.6911491 77.6101406 48.3905761 75.8772467 0.356975707 39.0157807"></polygon>
        <polygon id="path-13" points="33.4554624 0.929644803 67.5249926 38.7841205 67.5249926 59.0221809 44.208946 59.0221809 0.564907469 33.1591843"></polygon>
        <path d="M0.0260504374,20.2232189 C7.88450142,34.0896126 9.99830728,46.5165952 6.367468,57.5041667 L51.7542432,46.8366427 C37.5079123,34.4282704 31.4935519,20.6521663 33.7111623,5.50833034 L10.8583016,0 L0.0260504374,20.2232189 Z" id="path-15"></path>
        <path d="M80.9329784,10.0783919 C136.83916,90.1938919 198.400743,156.042111 265.617729,207.62305 L240.77403,236.738041 L220.448656,264.208333 C115.312894,189.388982 42.0510216,120.303777 0.663038995,56.9527174 L26.3517686,0 L80.9329784,10.0783919 Z" id="path-17"></path>
        <path d="M262.630074,0 C311.354897,99.7994971 263.746127,140.888032 119.803764,123.265605 C107.373116,122.620814 103.322292,125.008745 107.651293,130.429399 C111.980293,135.850052 146.765618,166.226299 212.007267,221.558139 L156.925516,279.75 L15.5603896,140.887782 C-10.6783719,98.3178361 -3.73323072,66.7388737 36.3958132,46.1508949 C44.5357941,42.41598 83.1022833,39.9818789 152.095281,38.8485916 L262.630074,0 Z" id="path-19"></path>
        <path d="M68.5758546,52.2983539 L3.72179591,0.967955854 C-1.24059864,5.1353722 -1.24059864,9.72824612 3.72179591,14.7465776 C8.68419045,19.7649091 15.5386809,25.9769761 24.2852672,33.3827787 C11.4113695,32.4201988 4.55687905,38.7253906 3.72179591,52.2983539 C3.20342252,62.0123116 5.40923024,66.6553427 10.339219,66.2274472 C11.1961423,73.8405399 14.0238461,77.3049853 18.8223304,76.6207834 C23.6208147,75.9365815 24.9319287,72.4721361 22.7556724,66.2274472 C24.0155251,62.1121843 26.2525307,62.1121843 29.4666894,66.2274472 C34.2879273,72.4003415 39.6200506,91.0191778 63.4473769,80.7863024 L226.544337,181.72309 L236.073272,122.562892 L68.5758546,52.2983539 Z" id="path-21"></path>
        <path d="M23.6353469,0.0989694086 L128.510785,107.822799 C142.981374,105.887789 153.638739,110.485036 160.482881,121.614538 L170.235107,133.281833 C171.204501,134.593811 171.204501,135.649468 170.235107,136.448802 L209.527501,143.695309 C213.859589,146.897793 213.859589,150.286856 209.527501,153.8625 L167.009629,152.459676 C141.746048,149.90263 124.364432,144.917729 114.864782,137.504973 L1.10485931,50.2797559 L23.6353469,0.0989694086 Z" id="path-23"></path>
        <path d="M30.2976301,0 C32.1976645,22.9256302 22.0984544,46.3609325 0,70.3059069 L64.5575087,99.9381983 C75.2780279,109.77971 93.058161,143.579348 117.897908,201.337113 C163.285469,204.387862 201.348206,193.812771 232.086119,169.611842 L205.943433,108.765616 C214.806208,98.9100134 219.237595,88.4298523 219.237595,77.3251328 L154.724086,20.0106811 C139.371482,3.4809615 116.819212,1.56183078 87.0672751,14.253289 C71.2382485,18.4454354 52.1312255,7.20253736 30.2976301,0 Z" id="path-25"></path>
        <path d="M18.4764094,28.342554 C14.445417,43.1289377 11.6872769,56.4846201 10.2019891,68.4096013 C8.33952704,73.6794782 5.65124856,76.629523 2.1371537,77.2597355 C-3.13398858,78.2050544 2.02595146,88.9367477 10.2019891,88.9367477 C10.7262758,95.5783991 11.4689197,100.621508 12.4299208,104.066075 C18.1106702,105.260756 24.2610312,104.72329 30.8810039,102.45368 C36.4797392,104.024046 36.8256347,107.263395 31.9186906,112.171727 C28.3786478,114.753156 24.4343265,116.226313 20.0857268,116.591198 C31.9074529,133.083269 46.3118702,138.620612 63.2989788,133.203226 C80.2860874,127.78584 91.3941775,115.473277 96.6232493,96.2655383 C111.914507,97.1019896 120.060041,91.2603085 121.059853,78.7404949 C122.55957,59.9607747 103.285092,59.7904621 99.8680117,68.4096013 C97.6008941,54.96527 100.912607,38.564711 109.80315,19.2079245 L36.8988679,0 L18.4764094,28.342554 Z" id="path-27"></path>
        <path d="M22.560484,7.59608207 L0.288532524,27.6989676 C-0.393277429,29.6559546 0.133263775,31.3994946 1.86815613,32.9295876 C3.60304849,34.4596805 7.76199006,38.1493706 14.3449808,43.998658 L37.0130985,86.5031931 L49.9364473,120.992242 C52.6923069,123.660535 58.4423396,124.994681 67.1865452,124.994681 L48.7168434,1.26441083 C45.7438377,-1.48209874 39.7171342,0.245796657 30.6367328,6.44809701 C27.6608693,7.21342039 24.9687864,7.59608207 22.560484,7.59608207 Z" id="path-29"></path>
        <path d="M23.9391736,0.220356737 C15.0506817,11.3231306 7.07143882,19.8092013 0.00144489505,25.6785686 C2.27679583,27.6571769 7.09277023,31.6994926 14.4493681,37.8055158 L6.37542116,89.2229258 L4.86094357,97.9413375 C0.738628253,116.429988 5.47728406,125.674313 19.076911,125.674313 L63.0991428,15.567692 C55.7610929,11.0753272 45.7565912,7.96441375 33.0856376,6.2349516 C28.9414994,1.29689013 25.8926781,-0.707974821 23.9391736,0.220356737 Z" id="path-31"></path>
    </defs>
    <g id="页面-1" stroke="none" stroke-width="1" fill="none" fill-rule="evenodd">
        <g id="画板" transform="translate(-6668.000000, -2437.000000)">
            <g id="电脑场景" transform="translate(6593.000000, 2437.000000)">
                <g id="编组-24备份-2">
                    <g id="编组-18" transform="translate(452.122105, 219.304900)">
                        <path d="M28.2883622,0.841657111 C60.6773337,8.22397161 165.814379,28.92202 194.736523,34.038842 C223.658666,39.1556641 220.94884,81.4973296 184.88602,74.6415718 C180.4834,73.8046075 175.092255,72.7780057 168.967983,71.6102699 L168.965426,87.4807215 L155.853701,69.1078825 C110.259035,60.4019476 40.672151,47.0584906 18.0860776,42.5599582 C-10.2620231,36.9137864 -4.10060944,-6.54065739 28.2883622,0.841657111 Z" id="形状结合" fill="#FEC047"></path>
                        <ellipse id="椭圆形" fill="#FFFFFF" cx="25.3238293" cy="21.8701804" rx="13.5060423" ry="13.4585725"></ellipse>
                        <path d="M53.5275176,16.9253255 C101.984428,26.6325941 176.387281,41.9946534 183.081107,43.5548608 C189.774933,45.1150682 187.811394,51.2844573 183.081107,50.3794953 C178.35082,49.4745333 61.0005385,25.8143073 53.5275176,24.1739127 C46.0544966,22.5335182 48.9937225,15.9273412 53.5275176,16.9253255 Z" id="路径-369" fill="#FFFFFF"></path>
                        <path d="M50.151007,30.383898 C98.6079171,40.0911666 173.01077,55.453226 179.704596,57.0134334 C186.398423,58.5736408 184.434884,64.7430299 179.704596,63.8380679 C174.974309,62.9331059 57.624028,39.2728798 50.151007,37.6324853 C42.677986,35.9920907 45.6172119,29.3859137 50.151007,30.383898 Z" id="路径-369备份" fill="#FFFFFF"></path>
                        <path d="M27.5441814,79.774992 C58.6199914,86.3982018 166.610937,107.011915 195.109727,112.379594 C223.608516,117.747272 220.741314,159.442359 185.193097,152.257548 C180.788857,151.367387 175.358446,150.298527 169.168695,149.098385 L169.165626,164.867514 L155.740854,146.515137 C110.370589,137.842913 41.248466,125.099624 18.2997901,120.711422 C-10.645156,115.176625 -3.53162866,73.1517822 27.5441814,79.774992 Z" id="形状结合备份-3" fill="#57E4C3"></path>
                        <ellipse id="椭圆形备份-23" fill="#FFFFFF" cx="30.3885951" cy="102.621616" rx="13.5060423" ry="13.4585725"></ellipse>
                        <path d="M58.5922834,97.6767607 C107.049193,107.384029 181.452047,122.746089 188.145873,124.306296 C194.839699,125.866503 192.87616,132.035893 188.145873,131.130931 C183.415586,130.225969 66.0653044,106.565743 58.5922834,104.925348 C51.1192624,103.284953 54.0584883,96.6787764 58.5922834,97.6767607 Z" id="路径-369备份-2" fill="#FFFFFF"></path>
                        <path d="M55.2157729,111.135333 C103.672683,120.842602 178.075536,136.204661 184.769362,137.764869 C191.463189,139.325076 189.49965,145.494465 184.769362,144.589503 C180.039075,143.684541 62.6887938,120.024315 55.2157729,118.38392 C47.7427519,116.743526 50.6819777,110.137349 55.2157729,111.135333 Z" id="路径-369备份-3" fill="#FFFFFF"></path>
                    </g>
                    <g id="编组-12">
                        <g id="路径-17" transform="translate(846.384810, 452.782891)">
                            <mask id="mask-2" fill="white">
                                <use xlink:href="#path-1"></use>
                            </mask>
                            <use id="蒙版" fill="#96DBFF" xlink:href="#path-1"></use>
                        </g>
                        <g id="路径-18" transform="translate(627.352192, 538.740338)">
                            <mask id="mask-4" fill="white">
                                <use xlink:href="#path-3"></use>
                            </mask>
                            <use id="蒙版" fill="#C7FAFF" xlink:href="#path-3"></use>
                        </g>
                        <path d="M668.203772,464.710018 C613.863036,437.87015 567.223352,444.870096 528.284719,485.709858 C519.753901,497.578301 515.037211,506.018683 514.134647,511.031004 C499.806034,507.240459 489.155005,510.167251 482.181562,519.811378 C424.893727,482.544216 364.396918,490.251923 300.691133,542.934498 C207.28271,492.65578 148.130934,514.343522 123.235805,607.997724 C89.4448069,617.725098 73.715472,644.566207 76.0478005,688.521052 C121.795619,687.096461 156.106483,686.028018 178.980392,685.315722 C220.487818,684.023177 269.910456,682.484152 327.248306,680.698646 C355.968961,707.657703 469.795243,704.113143 668.727151,670.064966 L668.203772,464.710018 Z" id="路径-390" fill="#96DBFF"></path>
                        <path d="M162.900113,647.184233 C168.63604,617.319592 186.07799,606.950889 215.225965,616.078122 C230.378168,595.689912 263.06622,578.720248 291.890586,596.185664 C303.053425,579.407485 355.445921,582.077143 391.542406,601.525424 C417.888473,578.779332 439.929374,579.176448 457.66511,602.716774 C474.949086,554.578711 503.08743,543.381579 542.080142,569.125377 C577.154995,523.755179 614.218688,521.232693 653.27122,561.557919 L894.69863,562.49493 C667.057363,635.448875 533.647218,678.109305 494.468196,690.476218 C426.936324,717.840582 378.592392,717.840582 349.436401,690.476218 C307.753121,727.544207 263.016309,736.474311 215.225965,717.266529 C194.679307,730.992533 163.043887,716.401665 162.900113,694.496184 C147.62528,704.597407 121.315068,695.032524 121.315068,671.85552 C121.315068,656.404185 135.17675,648.180422 162.900113,647.184233 Z" id="路径-2" fill="#C7FAFF"></path>
                        <path d="M238.648436,635.814183 C253.200464,606.440615 274.786916,599.999273 303.407793,616.490159 C329.103633,588.516879 361.282854,585.663487 399.945456,607.929982 C413.9231,595.527047 425.870391,595.65251 435.787329,608.306372 C457.156142,585.152314 480.514499,583.775804 505.862401,604.17684 C517.768169,603.611897 524.432678,607.486918 525.855929,615.801903 C574.446925,603.618349 600.595943,607.230973 604.302982,626.639774 C608.010022,646.048576 576.990226,655.494881 511.243596,654.978689 C457.099217,685.617291 412.300822,690.904969 376.84841,670.841725 C349.318381,689.009632 328.106355,690.280454 313.212333,674.654189 C277.863013,694.980664 253.008381,694.25943 238.648436,672.490487 C228.492872,667.653825 222.120321,670.841725 222.120321,656.942199 C222.120321,647.675848 227.629693,640.633176 238.648436,635.814183 Z" id="路径-3" fill="#E7FDFF"></path>
                        <path d="M1100.40178,2.27373675e-13 C1112.92325,1.96226471 1119.18399,11.3253562 1119.18399,28.0892745 C1119.18399,44.8531928 1095.83712,213.376095 1049.14339,533.65798 C1044.5788,546.692147 1033.34955,552.001491 1015.45563,549.586013 L961.399588,95.7291169 L1100.40178,2.27373675e-13 Z" id="路径-327" fill="#DFE0FF"></path>
                        <path d="M635.192055,587.416172 L699.94951,215.892131 C704.888696,194.139347 713.88507,179.970716 726.938633,173.386238 C739.992196,166.80176 861.697574,109.420775 1092.05477,1.24328464 C1107.68235,-3.9324409 1112.8968,7.05152905 1107.69813,34.1951945 C1102.49946,61.3388599 1079.37433,228.912293 1038.32275,536.915493 C1035.36428,544.700129 1029.13087,548.592447 1019.62254,548.592447 C1010.1142,548.592447 881.970707,561.533689 635.192055,587.416172 Z" id="路径-326" fill="#F2F3FF"></path>
                        <g id="椭圆形" transform="translate(656.067869, 36.740468)">
                            <mask id="mask-6" fill="white">
                                <use xlink:href="#path-5"></use>
                            </mask>
                            <use id="蒙版" fill="#382346" xlink:href="#path-5"></use>
                            <ellipse id="椭圆形备份-17" fill="#F996BC" mask="url(#mask-6)" cx="302.33121" cy="182.708832" rx="45.9292786" ry="45.9853659"></ellipse>
                            <ellipse fill="#A07BFE" mask="url(#mask-6)" cx="358.698961" cy="274.679564" rx="85.5954738" ry="85.7"></ellipse>
                            <ellipse fill="#A7CBFF" mask="url(#mask-6)" cx="274.147334" cy="394.868588" rx="134.656294" ry="134.820732"></ellipse>
                        </g>
                        <polygon id="路径-331" fill="#FEFEFF" points="192.067893 760.961034 635.192055 587.416172 1022.05556 532.095141 557.522764 734.796706 210.296933 769.728112"></polygon>
                        <path d="M192.067893,760.961034 L540.76667,727.179998 L567.178165,738.543776 C361.301886,759.90968 244.753916,771.386533 217.534255,772.974336 C205.084009,773.860744 196.595221,769.856309 192.067893,760.961034 Z" id="路径-330" fill="#CDCEF0"></path>
                        <path d="M1022.05556,532.095141 L540.76667,727.179998 C551.607739,740.121172 567.209524,742.009201 587.572025,732.844084 C607.934526,723.678968 754.700067,661.382378 1027.86865,545.954314 L1022.05556,532.095141 Z" id="路径-329" fill="#DFE0FF"></path>
                        <polygon id="路径-332" fill="#C5C7E7" points="385.983962 698.043727 656.067869 666.408724 931.193767 559.035067 635.192055 599.286892"></polygon>
                        <polygon id="路径-333" fill="#A7A9CF" points="421.704106 697.777868 541.48781 687.951945 543.037649 689.448937 463.725929 726.322806 459.214302 727.457631 325.721953 741.349446 325.360114 740.244098 416.555283 698.908486"></polygon>
                        <path d="M1051.30148,129.568812 C1060.03328,129.568812 1069.36638,126.799121 1076.46919,122.795419 C1080.4455,93.6374034 1085.35506,67.5623638 1087.41034,46.2924546 C1078.52694,37.3647052 1064.88264,31.3273486 1051.30148,31.3273486 C1024.20594,31.3273486 1002.24066,53.3194493 1002.24066,80.4480803 C1002.24066,107.576711 1024.20594,129.568812 1051.30148,129.568812 Z" id="椭圆形" fill="#42F4DA"></path>
                        <ellipse id="椭圆形" fill="#96DBFF" cx="642.559474" cy="592.740503" rx="51.1485149" ry="51.2109756"></ellipse>
                        <ellipse id="椭圆形" fill="#AEAAF4" cx="772.446959" cy="282.182927" rx="41.7538897" ry="41.804878"></ellipse>
                        <ellipse id="椭圆形" fill="#64FFC0" cx="862.217822" cy="135.865854" rx="22.9646393" ry="22.9926829"></ellipse>
                        <ellipse id="椭圆形" fill="#FEC047" cx="707.72843" cy="445.221951" rx="14.6138614" ry="14.6317073"></ellipse>
                        <ellipse id="椭圆形" fill="#96DBFF" cx="606.205944" cy="141.338343" rx="41.7538897" ry="41.804878"></ellipse>
                        <ellipse id="椭圆形" fill="#96DBFF" cx="653.17907" cy="200.910294" rx="17.7454031" ry="17.7670732"></ellipse>
                        <ellipse id="椭圆形" fill="#57E4C3" cx="1173.469" cy="121.048987" rx="21.0616438" ry="21.0875984"></ellipse>
                        <ellipse id="椭圆形" fill="#57E4C3" cx="1151.36351" cy="159.903659" rx="7.30693069" ry="7.31585366"></ellipse>
                        <g id="路径-36" transform="translate(670.149929, 592.590024)">
                            <mask id="mask-8" fill="white">
                                <use xlink:href="#path-7"></use>
                            </mask>
                            <use id="蒙版" fill="#E7FDFF" xlink:href="#path-7"></use>
                        </g>
                    </g>
                    <g id="编组-27" transform="translate(304.522105, 267.520871)">
                        <path d="M146.682936,244.754129 C155.116934,264.553824 158.384284,276.095244 156.484987,279.378388 C148.76697,282.663548 145.946484,288.92683 148.023528,298.168234 C131.83856,294.635023 121.6211,298.979441 117.371147,311.201488 C110.996219,329.534558 129.330129,335.330476 129.330129,335.330476 C136.314191,358.767241 151.434174,367.258947 174.690081,360.805593 C202.550069,373.456438 218.987625,364.964733 224.00275,335.330476 C239.004375,344.844669 260.892134,327.337418 256.926263,311.201488 C271.488208,297.343606 267.402641,273.295986 247.616803,273.295986 C236.599022,252.379762 221.246869,249.792577 201.560343,265.534432 C188.257274,254.690781 177.24844,242.795939 168.533841,229.849907 L147.999562,222.258646 L146.682936,244.754129 Z" id="路径-409" fill="#FFFFFF"></path>
                        <ellipse id="椭圆形" fill="#FFFFFF" cx="107.617215" cy="308.131304" rx="3.36303797" ry="3.36755524"></ellipse>
                        <ellipse id="椭圆形" fill="#FFFFFF" cx="131.999241" cy="285.400306" rx="4.20379747" ry="4.20944405"></ellipse>
                        <ellipse id="椭圆形" fill="#FFFFFF" cx="117.706329" cy="274.455752" rx="6.72607595" ry="6.73511047"></ellipse>
                        <ellipse id="椭圆形" fill="#FFFFFF" cx="250.546329" cy="245.831532" rx="5.04455696" ry="5.05133286"></ellipse>
                        <ellipse id="椭圆形" fill="#FFFFFF" cx="250.546329" cy="262.669309" rx="3.36303797" ry="3.36755524"></ellipse>
                        <path d="M151.35038,241.967556 L174.208101,266.152986 C171.317634,254.270895 168.157178,244.114597 164.726733,235.68409 C161.296288,227.253584 156.837503,229.348073 151.35038,241.967556 Z" id="路径-410" fill="#CCE3E6"></path>
                        <g id="路径-352-+-路径-402-+-路径-353-蒙版">
                            <path d="M131.801013,250.304961 C134.791324,253.590879 138.571497,254.55045 143.141534,253.183673 C149.996588,251.133508 174.719431,238.799062 179.354747,231.272192 C182.444958,226.254279 182.444958,221.217618 179.354747,216.162209 L131.801013,250.304961 Z" id="路径-408" fill="#1D36C4"></path>
                            <mask id="mask-10" fill="white">
                                <use xlink:href="#path-9"></use>
                            </mask>
                            <use id="蒙版" fill="#6890FF" xlink:href="#path-9"></use>
                            <path d="M100.631392,233.762155 C131.157676,233.762155 158.471896,218.837944 182.574051,188.989522 L183.75038,204.479229 C168.403259,230.383008 144.105307,243.334897 110.856525,243.334897 L103.277054,238.847616 L100.631392,233.762155 Z" id="路径-352" fill="#2361E9" opacity="0.520414807" mask="url(#mask-10)"></path>
                            <path d="M6.39675225,106.611226 C65.8095011,112.122057 102.762314,91.155308 117.25519,43.7109775 L101.821199,21.7729864 L69.0809261,48.2963854 L-7.42329114,78.829851 L6.39675225,106.611226 Z" id="路径-402" fill="#3E7AFF" mask="url(#mask-10)"></path>
                            <path d="M-7.42329114,93.7745645 C57.4653491,97.1964196 96.2542098,74.6233386 108.943291,26.0553215 L74.6567089,-8.32510843 L6.98426568,-3.30949394 C-4.99616635,15.7588745 -11.9810969,31.9958556 -13.970526,45.4014493 C-15.9599552,58.807043 -13.7775435,74.9314147 -7.42329114,93.7745645 Z" id="路径-353" fill="#88A7FF" mask="url(#mask-10)"></path>
                        </g>
                        <ellipse id="椭圆形" fill="#255EFD" cx="115.177215" cy="162.861939" rx="29.0916456" ry="28.2177904"></ellipse>
                        <ellipse id="椭圆形备份-26" fill="#376BFF" cx="116.216203" cy="164.952145" rx="25.9746835" ry="26.1275837"></ellipse>
                        <ellipse id="椭圆形备份-27" fill="#1D36C4" cx="117.25519" cy="163.907042" rx="22.8577215" ry="22.9922737"></ellipse>
                        <path d="M68.823311,188.989522 L65.7180441,188.989522 C51.6919616,223.270373 59.8664532,249.746325 90.241519,268.417377 L70.0188866,193.653573 L68.823311,188.989522 Z" id="路径-406" fill="#1D36C4"></path>
                        <path d="M68.9445621,188.989522 C53.6637925,221.13501 60.8504295,247.442314 90.5044731,267.911434 C93.3646302,268.976236 94.8317352,268.360309 94.9057882,266.063653 C95.0168676,262.61867 89.3689929,236.055407 115.177215,223.691705 L68.9445621,188.989522 Z" id="路径-351" fill="#3575FF"></path>
                        <path d="M160.892658,134.644148 C188.859124,136.19548 206.628244,151.445421 214.200017,180.39397 C216.438252,194.181727 213.45793,198.378806 205.25905,192.985205 C192.96073,184.894803 173.749904,184.05156 165.487093,191.93645 L160.892658,134.644148 Z" id="路径-407备份" fill="#1D36C4"></path>
                        <path d="M160.892658,136.734355 C188.573937,138.210935 206.20153,153.694881 213.77544,183.186193 C216.687453,196.520181 214.042864,200.439812 205.841671,194.945085 C193.539882,186.702995 173.313916,186.91236 165.048774,194.945085 L160.892658,136.734355 Z" id="路径-407" fill="#3575FF"></path>
                    </g>
                    <path d="M487.08,102.653358 L514.269474,142.548185 L498.190526,142.547358 L498.191083,186.642468 L475.184605,186.642468 L475.184526,142.547358 L459.890526,142.548185 L487.08,102.653358 Z" id="形状结合" fill="#FF5050"></path>
                    <path d="M1295.77263,401.281307 L1314.41684,428.240774 L1304.05842,428.240307 L1304.05895,457.274047 L1287.48632,457.274047 L1287.48542,428.240307 L1277.12842,428.240774 L1295.77263,401.281307 Z" id="形状结合备份-5" fill="#FF5050"></path>
                    <path d="M234.606316,273.742287 L253.250526,300.701754 L242.892105,300.701287 L242.892632,329.735027 L226.32,329.735027 L226.319105,300.701287 L215.962105,300.701754 L234.606316,273.742287 Z" id="形状结合备份-6" fill="#57E4C3"></path>
                    <path d="M699.157895,711.721883 C797.455181,706.960767 864.704837,694.049086 900.906863,672.986841 C937.108888,651.924596 967.304791,654.063018 991.494572,679.402107 C995.00725,669.423625 1004.95849,664.367147 1021.3483,664.232672 C1022.44656,651.096188 1027.32713,643.904063 1035.99003,642.656294 C1044.65292,641.408525 1052.53115,644.117268 1059.62472,650.782522 C1072.0029,644.673689 1082.36643,645.388172 1090.71529,652.925972 C1099.06416,660.463772 1097.38067,669.28915 1085.66482,679.402107 C1096.91245,678.683946 1104.3547,681.335634 1107.99157,687.35717 C1113.44687,696.389474 1104.99402,715.032986 1030.04981,728.525752 C961.521226,739.728331 851.223919,734.127042 699.157895,711.721883 Z" id="路径-411" fill="#A8E1FF"></path>
                    <path d="M590.4,732.571688 C609.568526,724.391558 623.739233,718.165408 632.912122,713.893239 C664.981138,698.957458 688.83605,685.43419 704.411373,670.839265 C714.163461,644.973215 719.188248,646.387209 743.205206,646.387209 C745.111709,637.589257 750.662854,631.65932 759.858639,628.597395 C773.652318,624.004509 781.543069,635.794459 781.543069,635.794459 C787.281263,629.25064 793.141162,627.231528 799.122766,629.737124 C800.322014,619.53972 805.532934,613.534581 814.755527,611.72171 C823.978119,609.908838 831.317225,613.367011 836.772843,622.096228 C843.970602,617.762116 849.796239,617.762116 854.249756,622.096228 C858.703274,626.43034 858.703274,632.036526 854.249756,638.914788 C857.964406,641.492438 858.620785,645.163784 856.218895,649.928826 C858.788327,658.927998 854.649388,666.146393 851.11374,670.839265 C847.578092,675.532136 820.655443,705.480063 727.176715,715.573804 C682.54143,719.662826 636.949191,725.328787 590.4,732.571688 Z" id="路径-412" fill="#96DBFF"></path>
                    <path d="M590.4,732.571688 C717.110136,704.269428 795.052575,684.288702 824.227316,672.629511 C829.133433,670.668864 823.762997,660.659772 835.283381,656.691464 C846.803765,652.723155 848.067657,661.627594 851.98854,659.120573 C859.54526,654.288791 866.530066,655.185308 869.68202,647.74172 C872.833973,640.298132 880.909162,633.44386 892.623527,638.819755 C896.59919,615.410891 911.759988,602.594055 938.10592,600.369248 C962.007849,600.157069 969.994718,612.726319 962.066528,638.076999 C973.374341,642.166053 975.583301,650.842223 968.693409,664.105511 C964.140804,675.267775 953.230088,684.922455 935.961261,693.069552 C882.826075,716.963388 767.638988,730.130767 590.4,732.571688 Z" id="路径-413" fill="#E7FDFF"></path>
                    <path d="M702.831821,717.109468 C712.039,701.078188 724.849591,698.186427 741.263591,708.434185 C782.999928,695.076446 811.965404,700.919575 828.160022,725.96357 C863.568797,714.736221 886.813903,720.889112 897.89534,744.422243 C910.203503,742.543615 916.980845,745.851748 918.227368,754.346642 L671.191579,750.092659 C678.928617,728.789423 689.475364,717.795026 702.831821,717.109468 Z" id="路径-414" fill="#C7FAFF"></path>
                    <g id="小星球" transform="translate(1120.206316, 239.524501)">
                        <path d="M41.5077617,3.19714203 C42.8158678,4.88671873 44.3135969,6.19894261 46.0009492,7.1338137 C51.8006654,5.41757366 57.9418919,4.49753984 64.2985638,4.49753984 C69.5243839,4.49753984 74.6045956,5.11934328 79.4688835,6.29281754 C80.7523929,5.64114339 81.7320714,4.70383502 82.6072563,3.36935983 C84.8169735,2.42028619e-14 93.3251106,2.12935608 99.037919,5.53847571 C104.750727,8.94759533 110.266438,10.8423696 107.266399,18.8144312 C107.056911,19.3711094 106.875012,19.9123277 106.720704,20.4380861 C116.571187,29.0681553 123.752302,40.6559889 126.871963,53.8099362 C128.674905,54.9814755 130.558937,55.9404289 132.521052,56.6878503 C137.213616,58.475372 139.037399,64.7250257 137.992403,75.4368113 C137.483343,83.1907385 133.131375,88.0474271 124.936498,90.0068773 C118.490582,108.200275 104.04611,122.625419 85.8173413,129.08085 C84.5917016,132.615129 81.2370677,136.578154 72.1699792,138.061553 C64.4523938,139.324169 58.5661405,137.310536 54.5112193,132.020656 C43.9957839,130.420294 34.3191241,126.278296 26.1297089,120.243665 C18.9918112,123.313269 12.95655,121.142933 8.31397764,117.118048 C2.56743169,112.136072 -0.905823299,104.383022 3.45234726,100.300091 C4.70766616,99.1240514 5.54852029,97.5767652 5.97490964,95.6582322 C2.1399967,87.4443067 0,78.2859028 0,68.628975 C0,51.6837916 6.58912413,36.2735803 17.3512625,24.8081712 C17.330254,22.8153367 16.9414604,21.0632546 16.1859803,19.55162 C13.3810997,14.9529333 15.9923215,9.93490658 24.0196458,4.49753984 C32.0709612,-1.0288209 37.9003332,-1.46228684 41.5077617,3.19714203 Z" id="形状结合" fill="#57E4C3"></path>
                        <path d="M26.4967364,9.09844365 C22.4334981,11.3743871 19.4231864,14.13475 21.7810364,16.1102771 C23.3529364,17.4272951 26.8721265,16.7988707 32.3386066,14.2250038 C36.9641322,11.313152 38.6034335,9.05214843 37.2565104,7.44199304 C35.2361258,5.02675997 30.5599747,6.82250022 26.4967364,9.09844365 Z" id="路径-420" fill="#098266"></path>
                        <path d="M127.213115,60.8252766 C124.489101,60.9217888 120.875258,60.9177127 121.614601,70.2758388 C122.353943,79.6339648 125.702447,79.7525911 128.183913,79.693278 C130.66538,79.6339648 131.992536,74.5499248 131.992536,69.9081486 C131.992536,65.2663724 129.937129,60.7287644 127.213115,60.8252766 Z" id="路径-421" fill="#098266"></path>
                        <path d="M7.39372868,103.13501 C6.46553677,104.125684 4.34207519,106.577047 10.5911782,112.780981 C16.8402813,118.984915 18.8826753,117.76276 20.4913759,116.140644 C22.1000766,114.518528 19.2136584,109.757841 16.0739458,106.455342 C12.9342332,103.152844 8.3219206,102.144337 7.39372868,103.13501 Z" id="路径-422" fill="#098266"></path>
                        <ellipse id="椭圆形" fill="#098266" cx="37.7121531" cy="58.7263928" rx="12.5707177" ry="12.584227"></ellipse>
                        <path d="M81.7096651,46.1421658 C88.6522808,46.1421658 94.2803828,42.2253382 94.2803828,35.5222024 C94.2803828,28.8190666 88.6522808,25.1684541 81.7096651,25.1684541 C74.7670494,25.1684541 69.1389474,28.8190666 69.1389474,35.5222024 C69.1389474,42.2253382 74.7670494,46.1421658 81.7096651,46.1421658 Z" id="椭圆形备份-28" fill="#098266"></path>
                        <ellipse id="椭圆形" fill="#098266" cx="76.471866" cy="82.8461612" rx="17.8085167" ry="17.827655"></ellipse>
                    </g>
                    <g id="小星球备份" transform="translate(251.696842, 465.050817)">
                        <path d="M15.8568977,1.2213801 C16.3569506,1.86725865 16.9295385,2.36879125 17.5746616,2.72597792 C19.790421,2.06942476 22.1358307,1.71816129 24.5634963,1.71816129 C26.5593871,1.71816129 28.4996796,1.95558761 30.3575314,2.40366774 C30.8487347,2.15551611 31.2232673,1.79730713 31.5578282,1.28717117 C32.4019899,7.88258347e-15 35.6522894,0.813461874 37.8347106,2.11582218 C40.0171318,3.41818248 42.1242573,4.14202882 40.978175,7.18753553 C40.8980554,7.40043901 40.8284996,7.60742313 40.7695075,7.80848789 C44.5327795,11.1048959 47.275713,15.5309613 48.4676039,20.5551846 C49.1570436,21.0043314 49.8766242,21.370568 50.6260198,21.6560327 C52.4186846,22.3389062 53.115411,24.7264143 52.7161989,28.8185571 C52.5217648,31.7801489 50.8598308,33.6353658 47.7303968,34.3842079 C45.2659496,41.3354063 39.7471307,46.8465179 32.7825036,49.3123695 C32.3153337,50.6626647 31.0335784,52.1760562 27.5705538,52.7426156 C24.6229606,53.2248491 22.3746462,52.4560746 20.8256107,50.436292 C16.8080896,49.8238911 13.1104458,48.24119 9.98125922,45.9351361 C7.25482567,47.1082697 4.94951134,46.2791651 3.17612629,44.7417263 C0.980816602,42.8384993 -0.346044856,39.8766599 1.31887424,38.3168886 C1.79863599,37.8674262 2.11992966,37.2760197 2.28275523,36.5426693 C0.817454952,33.4053826 0,29.9068119 0,26.2178107 C0,19.745096 2.51662874,13.8586437 6.62718855,9.47875303 C6.62071915,8.71674982 6.47218642,8.04697242 6.18340821,7.46915821 C5.11188078,5.71235654 6.1094262,3.79535757 9.17604448,1.71816129 C12.2518279,-0.393032705 14.478779,-0.558626433 15.8568977,1.2213801 Z" id="形状结合" fill="#D895FF"></path>
                        <path d="M10.7754035,4.32474221 C9.12301012,5.06518687 7.8988094,5.96323029 8.8576741,6.6059389 C9.49691724,7.03441131 10.928063,6.82996268 13.1511115,5.99259301 C15.0321698,5.04526494 15.6988229,4.30968074 15.1510709,3.78584041 C14.329443,3.00007991 12.4277969,3.58429754 10.7754035,4.32474221 Z" id="路径-420" fill="#AF0DB9"></path>
                        <path d="M47.8622676,23.8827551 C46.9760498,23.9176427 45.8003391,23.9161692 46.0408733,27.2989786 C46.2814076,30.681788 47.370794,30.7246695 48.1781025,30.7032287 C48.9854109,30.681788 49.4171817,28.8439907 49.4171817,27.1660646 C49.4171817,25.4881385 48.7484854,23.8478675 47.8622676,23.8827551 Z" id="路径-421" fill="#AF0DB9"></path>
                        <path d="M3.79442985,39.3618755 C3.47088674,39.707198 2.73070431,40.5616784 4.90897603,42.7242053 C7.08724775,44.8867323 7.79917217,44.4607214 8.35992258,43.8952948 C8.920673,43.3298681 7.9145441,41.6704187 6.82012349,40.5192553 C5.72570288,39.3680918 4.11797295,39.016553 3.79442985,39.3618755 Z" id="路径-422" fill="#AF0DB9"></path>
                        <ellipse id="椭圆形" fill="#AF0DB9" cx="13.632326" cy="22.1763363" rx="5.11212224" ry="5.11761606"></ellipse>
                        <path d="M30.6727334,17.0587202 C33.4960806,17.0587202 35.7848557,15.4658675 35.7848557,12.7399094 C35.7848557,10.0139514 33.4960806,8.52936011 30.6727334,8.52936011 C27.8493863,8.52936011 25.5606112,10.0139514 25.5606112,12.7399094 C25.5606112,15.4658675 27.8493863,17.0587202 30.6727334,17.0587202 Z" id="椭圆形备份-28" fill="#AF0DB9"></path>
                        <ellipse id="椭圆形" fill="#AF0DB9" cx="28.9686927" cy="32.4115684" rx="6.81616299" ry="6.82348809"></ellipse>
                    </g>
                </g>
                <g id="飞奔女备份" transform="translate(430.000000, 55.000000)">
                    <path d="M286.887277,143.303539 C329.378575,167.852923 363.812569,181.15941 390.189259,183.222998 C402.157828,184.66079 414.165462,176.906381 426.212161,159.959771 L414.685198,153.738881 C413.03789,150.24013 414.547223,148.490754 419.213199,148.490754 L442.482477,149.21575 L472.085083,120.445367 L459.41703,118.571639 L480.2559,113.599432 L489.230794,101.851679 C455.494162,104.384707 415.42985,84.1988427 369.037858,41.2940846 C333.173792,4.43844976 296.98764,-7.74649981 260.479401,4.73923588 C250.366788,4.73923588 245.204753,4.73923588 233.072953,18.5080879 C224.985087,27.6873226 217.184216,42.4067931 209.67034,62.6664992 C214.91986,68.8724802 222.851897,72.6126031 233.466452,73.8868681 C247.712005,83.2995222 265.518947,106.438412 286.887277,143.303539 Z" id="路径-19" fill="#251A6B"></path>
                    <path d="M554.468615,643.605345 C554.302185,653.222354 557.082881,655.254042 562.810704,649.700408 C571.402437,641.369959 620.682475,588.558362 603.753597,592.329969 C592.467678,594.844374 579.662495,599.628708 565.338048,606.682973 L554.468615,643.605345 Z" id="路径-12" fill="#000B2E"></path>
                    <path d="M313.728953,599.249951 L315.97929,621.666667 C320.77875,620.266448 328.806331,613.482582 340.062034,601.315068 C356.945589,583.063798 376.868816,562.691601 372.001865,558.977368 C367.201616,555.769463 351.727373,555.546431 325.579136,558.308272 L313.728953,599.249951 Z" id="路径-10" fill="#000B2E"></path>
                    <g id="路径-2" transform="translate(312.175840, 561.054167)">
                        <mask id="mask-12" fill="white">
                            <use xlink:href="#path-11"></use>
                        </mask>
                        <use id="蒙版" fill="#FFA39B" xlink:href="#path-11"></use>
                        <path d="M17.6884915,59.6607767 C26.6065627,38.9241646 39.1743747,25.5079096 55.3919275,19.4120117 L24.4405379,-2.15856481 L-1.05894111,37.9893062 L17.6884915,59.6607767 Z" fill="#FF857A" mask="url(#mask-12)"></path>
                    </g>
                    <g id="路径-14" transform="translate(551.355339, 598.354167)">
                        <mask id="mask-14" fill="white">
                            <use xlink:href="#path-13"></use>
                        </mask>
                        <use id="蒙版" fill="#FFA39B" xlink:href="#path-13"></use>
                        <path d="M18.2685617,50.5700226 C28.1234232,32.4342077 39.9426028,19.9811425 53.7261007,13.2108271 L30.4459716,-4.82108844 L-15.8639464,20.8147709 L18.2685617,50.5700226 Z" fill="#FF857A" mask="url(#mask-14)"></path>
                    </g>
                    <g id="路径-144" transform="translate(259.369976, 128.995833)">
                        <mask id="mask-16" fill="white">
                            <use xlink:href="#path-15"></use>
                        </mask>
                        <use id="蒙版" fill="#FFA39B" xlink:href="#path-15"></use>
                        <path d="M5.5055797,38.7527367 C21.9260191,29.9886415 31.1941192,22.8840598 33.3098799,17.4389916 L29.2431196,11.6739225 L-3.23301205,23.0819551 L5.5055797,38.7527367 Z" fill="#FF857A" mask="url(#mask-16)"></path>
                    </g>
                    <path d="M225.201476,167.05754 L214.977054,163.219679 C211.61547,162.608858 205.986166,170.693915 198.089141,187.474852 C187.071039,210.887983 179.031581,233.038798 185.686648,233.410373 C186.252945,233.268324 191.016152,234.328262 192.710565,234.679167 C199.928636,230.345899 210.758939,207.805357 225.201476,167.05754 Z" id="路径-16" fill="#B00B05"></path>
                    <g id="路径-7" transform="translate(329.260090, 380.770833)">
                        <mask id="mask-18" fill="white">
                            <use xlink:href="#path-17"></use>
                        </mask>
                        <use id="蒙版" fill="#091B57" xlink:href="#path-17"></use>
                        <path d="M22.0312736,64.3849443 C44.144493,98.2414512 88.4898875,150.198958 155.067457,220.257464 L0.663038995,86.5329928 L22.0312736,64.3849443 Z" fill="#00147A" mask="url(#mask-18)"></path>
                        <path d="M52.2659284,66.5490823 C52.6665245,66.2339625 53.2463062,66.3037906 53.560907,66.7050476 C106.26919,133.931742 153.851085,180.968398 196.28423,207.812598 C196.714138,208.085044 196.843512,208.6556 196.571515,209.086971 C196.299518,209.517589 195.729901,209.647176 195.299241,209.374731 C152.659615,182.399906 104.937396,135.224534 52.11022,67.8461974 C51.7956192,67.4449404 51.8653322,66.8642022 52.2659284,66.5490823 Z" id="路径-292" fill="#0D0E14" fill-rule="nonzero" mask="url(#mask-18)"></path>
                    </g>
                    <g id="路径-290" transform="translate(149.098909, 329.483333)">
                        <mask id="mask-20" fill="white">
                            <use xlink:href="#path-19"></use>
                        </mask>
                        <use id="蒙版" fill="#1E2F82" xlink:href="#path-19"></use>
                        <path d="M219.505681,29.3278798 C219.946242,29.0791617 220.504677,29.2352796 220.752979,29.676579 C233.558774,52.4358929 227.337788,68.7942202 202.318852,78.2079093 C177.666456,87.4836832 134.549098,90.1856757 72.9040158,86.3509 C72.3992724,86.3195012 72.0155083,85.8841869 72.0468545,85.3785981 C72.0782007,84.8730093 72.5127872,84.4886023 73.0175305,84.5200011 C134.422398,88.3398337 177.329097,85.6510424 201.674867,76.4906404 C225.654097,67.4681537 231.405386,52.3449132 219.157565,30.5772672 C218.909263,30.1359678 219.065119,29.576598 219.505681,29.3278798 Z" fill="#0B0B0B" fill-rule="nonzero" mask="url(#mask-20)"></path>
                        <path d="M44.6011122,89.3934062 C45.047106,89.1545997 45.6019225,89.3231638 45.8403297,89.7699046 C46.0787369,90.2166454 45.9104547,90.7723913 45.4644609,91.0111978 C34.7238336,96.7622459 36.8645848,109.538709 52.4869103,129.804041 C68.3543156,150.387292 97.9086544,178.263155 141.133826,213.404176 C141.526489,213.723402 141.586454,214.301034 141.267762,214.694355 C140.949071,215.087675 140.372404,215.147741 139.979741,214.828516 L137.396582,212.723837 C95.4731914,178.489801 66.6918487,151.232202 51.0374002,130.925199 C34.8183934,109.88585 32.4728988,95.8874346 44.6011122,89.3934062 Z" id="路径-291" fill="#0B0B0B" fill-rule="nonzero" mask="url(#mask-20)"></path>
                    </g>
                    <path d="M274.901113,580.628803 C283.174771,552.277828 300.285872,532.801561 326.234415,522.2 L372.747271,558.632954 C339.968123,582.781039 321.636998,603.792277 317.753897,621.666667" id="路径-3" fill="#A8BDFF"></path>
                    <path d="M506.315044,611.466746 C518.738118,582.602881 534.954137,563.726466 554.963102,554.8375 L605.714316,591.425915 C582.253782,602.806106 565.336711,621.693301 554.963102,648.0875 C537.606797,635.046554 521.390778,622.839636 506.315044,611.466746 Z" id="路径-4" fill="#A8BDFF"></path>
                    <g id="路径-113" transform="translate(0.000000, 63.720833)">
                        <mask id="mask-22" fill="white">
                            <use xlink:href="#path-21"></use>
                        </mask>
                        <use id="蒙版" fill="#FFA39B" xlink:href="#path-21"></use>
                        <path d="M26.9675204,63.8595982 C29.7105042,66.2835802 33.9894142,69.3802353 39.8042506,73.1495635 C45.619087,76.9188917 52.9174475,76.9188917 61.6993321,73.1495635 L205.577231,152.362609 L195.777509,167.438561 L61.6993321,86.5109476 C46.9562463,90.8064396 35.3789758,85.0825944 26.9675204,69.3394122 C25.2617387,66.5561874 25.2617387,64.7295828 26.9675204,63.8595982 Z" fill="#FF857A" mask="url(#mask-22)"></path>
                        <path d="M1.39811335,4.41999556 C3.90553719,10.240659 12.7093432,19.5448723 27.8095315,32.3326355 L24.7930833,33.4411676 C22.8470694,32.8183683 20.3772563,31.5797561 17.3836441,29.7253311 L1.47437618e-13,13.5938866 C-5.56203073,9.75455678 -6.0189735,5.80252487 -1.37082831,1.7377909 C-0.445131583,2.46604881 0.477848971,3.36011703 1.39811335,4.41999556 Z" id="路径-5" fill="#FF857A" mask="url(#mask-22)"></path>
                    </g>
                    <g id="路径-109" transform="translate(369.641044, 239.341667)">
                        <mask id="mask-24" fill="white">
                            <use xlink:href="#path-23"></use>
                        </mask>
                        <use id="蒙版" fill="#FFA39B" xlink:href="#path-23"></use>
                        <path d="M22.6335627,52.6314181 L115.659696,132.205665 C125.945312,140.402077 139.360301,145.613524 155.904664,147.840008 C172.449027,150.066492 192.044956,151.37728 214.69245,151.77237 L206.337666,163.318427 L141.430487,157.569337 L100.218947,139.152322 L22.6335627,68.7295256 L22.6335627,52.6314181 Z" fill="#FF857A" mask="url(#mask-24)"></path>
                    </g>
                    <g id="路径-8" transform="translate(184.820522, 163.187500)">
                        <mask id="mask-26" fill="white">
                            <use xlink:href="#path-25"></use>
                        </mask>
                        <use id="蒙版" fill="#FF9D46" xlink:href="#path-25"></use>
                        <path d="M172.701335,60.491517 C184.534957,74.8750542 199.664582,97.5245266 218.090211,128.439934 L216.025825,106.102016 L172.701335,60.491517 Z" fill="#FF800F" mask="url(#mask-26)"></path>
                        <path d="M42.1054196,0.668704121 C46.2327461,25.154466 36.4608518,51.2830689 12.8709181,79.0334442 L12.1518421,79.8748611 L10.7533566,78.6797702 C34.300704,51.2711218 44.1582259,25.6173959 40.4071036,1.69752407 L40.2892679,0.973210164 L42.1054196,0.668704121 Z" id="路径-17" fill="#FFD8B7" fill-rule="nonzero" mask="url(#mask-26)"></path>
                        <path d="M212.579892,69.3951424 L214.415982,69.5375857 C213.448708,81.9395453 209.256925,92.4579866 201.843268,101.063836 L201.435691,101.531349 L200.053058,100.318049 C207.316039,92.0853529 211.47235,82.0093087 212.524626,70.060871 L212.579892,69.3951424 Z" id="路径-18" fill="#FFD8B7" fill-rule="nonzero" mask="url(#mask-26)"></path>
                    </g>
                    <path d="M290.81271,544.378207 C291.334351,543.833496 292.196958,543.816563 292.739399,544.340387 L294.533213,546.066949 C310.908213,561.775637 325.404891,574.235941 338.017425,583.445715 C338.626081,583.89016 338.760702,584.745933 338.318109,585.357137 C337.875517,585.968341 337.023312,586.103526 336.414656,585.65908 L335.019569,584.632895 C322.163461,575.108098 307.442336,562.335502 290.850372,546.312961 C290.307932,545.789137 290.29107,544.922918 290.81271,544.378207 Z" id="路径-11" fill="#2D61FF" fill-rule="nonzero"></path>
                    <path d="M519.04972,584.866809 C519.526001,584.281021 520.380281,584.197771 520.957807,584.680866 L522.288398,585.791381 C543.889372,603.778394 559.021003,614.346279 567.541028,617.443066 C568.245733,617.699206 568.612296,618.486298 568.359768,619.201085 C568.10724,619.915871 567.331249,620.287678 566.626544,620.031537 C557.535383,616.727159 541.787933,605.669116 519.233041,586.802192 C518.655515,586.319097 518.57344,585.452597 519.04972,584.866809 Z" id="路径-13" fill="#2D61FF" fill-rule="nonzero"></path>
                    <g id="路径-9" transform="translate(211.223454, 23.312500)">
                        <mask id="mask-28" fill="white">
                            <use xlink:href="#path-27"></use>
                        </mask>
                        <use id="蒙版" fill="#FFA39B" xlink:href="#path-27"></use>
                        <path d="M13.2153559,47.5155817 C21.342888,49.1790952 28.2569731,50.010852 33.9576115,50.010852 L37.1117166,37.624711 L36.1938447,53.4625518 C41.3503318,57.9419674 51.0351067,60.5218989 65.2481694,61.2023462 L65.4870531,43.6832464 L67.6633706,64.3611501 C75.0498538,70.4708983 82.6931078,72.8096103 90.5931326,71.3772862 C92.59504,76.2332402 94.6807124,78.7936358 96.8501497,79.0584729 L97.2674814,36.3868407 L38.4952973,13.4374285 L16.8520967,25.1887355 L13.2153559,47.5155817 Z" fill="#FF857A" mask="url(#mask-28)"></path>
                        <path d="M26.8056098,72.4739003 C29.1739409,72.4744355 30.8109241,71.123605 31.0928372,64.3621138 C31.3747503,57.6006225 29.17191,56.2489355 26.8035789,56.2484 C24.4352478,56.2478789 22.6090096,57.9837371 22.5163515,64.3602007 C22.4236934,70.7366642 24.4372787,72.4733789 26.8056098,72.4739003 Z" id="椭圆形" fill="#FF867B" mask="url(#mask-28)"></path>
                        <path d="M25.7335491,72.4739003 C28.1018802,72.4744355 29.7388634,71.123605 30.0207764,64.3621138 C30.3026895,57.6006225 28.0998493,56.2489355 25.7315182,56.2484 C23.363187,56.2478789 21.5369489,57.9837371 21.4442908,64.3602007 C21.3516327,70.7366642 23.365218,72.4733789 25.7335491,72.4739003 Z" id="椭圆形备份-8" fill="#2A2A2A" mask="url(#mask-28)"></path>
                        <ellipse id="椭圆形" fill="#FF8A80" mask="url(#mask-28)" cx="58.4273101" cy="89.24025" rx="16.6169414" ry="16.76635"></ellipse>
                    </g>
                    <path d="M402.25643,65.275 C428.563182,87.0333333 456.001523,97.9125 484.571453,97.9125 C484.478394,95.1939305 484.198748,92.1533417 483.732515,88.7907334 C466.1106,90.5477801 438.951905,82.7092023 402.25643,65.275 Z" id="路径-20" fill="#251A6B"></path>
                    <path d="M220.542136,65.539539 C230.69118,68.6744123 239.330785,70.241849 246.460948,70.241849 L251.861812,55.1427303 C250.530361,60.481958 250.216035,66.1876343 250.918832,72.2597593 C253.451213,76.0359731 262.422384,79.8238035 277.832346,83.6232505 L277.832346,63.3124642 L282.004199,85.3473312 C287.114174,89.6007125 294.220366,92.4371578 303.322775,93.8566671 C302.481789,88.7761081 302.948366,81.3072898 304.722508,71.4502123 C304.722508,89.4813928 306.471182,99.856322 309.968531,102.575 L330.813203,50.2764537 L325.501196,27.7956307 L283.307188,17.4415498 L251.861812,15.5416667 L244.664462,17.4415498 L228.249259,36.2224509 L220.542136,65.539539 Z" id="路径-21" fill="#251A6B"></path>
                    <g id="编组-10" transform="translate(583.970725, 615.450000)">
                        <g id="路径-333" transform="translate(0.000000, 3.703546)">
                            <mask id="mask-30" fill="white">
                                <use xlink:href="#path-29"></use>
                            </mask>
                            <use id="蒙版" fill="#E32625" xlink:href="#path-29"></use>
                            <path d="M39.5660359,107.160938 C44.9625746,91.6549466 52.4219731,82.1697919 61.9442313,78.7054735 L68.1739122,128.935855 L56.814298,128.935855 L43.2570907,125.920567 L39.5660359,107.160938 Z" fill="#FFCF19" mask="url(#mask-30)"></path>
                            <ellipse id="椭圆形" fill="#FFFFFF" mask="url(#mask-30)" cx="31.2923635" cy="30.5542553" rx="11.9647272" ry="12.0365248"></ellipse>
                            <path d="M33.7684597,23.6684941 C34.4988596,23.4484296 35.2682991,23.8656912 35.487051,24.6004741 C35.692935,25.2920345 35.3376347,26.0183841 34.6861832,26.2849133 L34.5606302,26.3293783 L28.7926559,28.0663982 L30.7649732,29.1518882 C31.5950831,29.608579 31.7239128,30.7383273 31.0557092,31.3754651 L30.9548192,31.4630079 L28.5745297,33.3411738 L35.1894161,34.3936377 C35.8982153,34.5063775 36.3952005,35.1430675 36.3519461,35.8492135 L36.3374248,35.9823188 C36.2253575,36.6953714 35.5924652,37.1953389 34.8905314,37.1518249 L34.75822,37.1372165 L25.015724,35.5876002 C23.8674274,35.4049551 23.4597853,33.979251 24.2825646,33.2063099 L24.3790729,33.1232101 L27.6026257,30.5783284 L24.5689189,28.9089744 C23.531746,28.3383663 23.6504752,26.8270836 24.7132737,26.4026024 L24.8352368,26.3600133 L33.7684597,23.6684941 Z" id="路径-22" fill="#FFCF19" fill-rule="nonzero" mask="url(#mask-30)"></path>
                        </g>
                        <path d="M30.1763291,60.1189735 C31.2875955,59.498906 32.6881205,59.9025073 33.3044892,61.0204421 C33.895176,62.0917962 33.5513305,63.4304005 32.5435857,64.0858346 L32.4083979,64.1673735 L16.6435007,72.9639144 C15.5322344,73.5839818 14.1317094,73.1803806 13.5153406,72.0624458 C12.9246539,70.9910916 13.2684994,69.6524874 14.2762442,68.9970533 L14.4114319,68.9155143 L30.1763291,60.1189735 Z" id="路径-334" fill="#FFFFFF" fill-rule="nonzero"></path>
                        <path d="M33.9764991,69.2690624 C35.0877654,68.6489949 36.4882904,69.0525962 37.1046592,70.170531 C37.6953459,71.2418851 37.3515004,72.5804894 36.3437556,73.2359235 L36.2085679,73.3174624 L20.4436707,82.1140033 C19.3324043,82.7340707 17.9318794,82.3304695 17.3155106,81.2125347 C16.7248238,80.1411805 17.0686694,78.8025763 18.0764142,78.1471422 L18.2116019,78.0656032 L33.9764991,69.2690624 Z" id="路径-334备份" fill="#FFFFFF" fill-rule="nonzero"></path>
                        <path d="M46.3106606,4.08053444 C50.25869,31.9074216 56.590775,73.4642125 65.3069157,128.750907 C65.9259583,129.534974 68.7975095,129.571962 73.9215696,128.861873 C67.1878537,81.6990897 61.3053023,39.6607065 56.2739154,2.74672288 C51.7068123,0.856914634 48.7496944,0.438150942 47.4025616,1.49043181 C46.0554289,2.54271267 45.6914619,3.40608022 46.3106606,4.08053444 Z" id="路径-23" fill="#FFFFFF"></path>
                        <path d="M46.9603731,1.25264288 C45.6611252,2.31619672 45.2086701,3.32801858 45.8083686,4.19054312 L45.8727642,4.27666986 L47.2446175,13.8281323 C50.5545703,36.6572543 55.1699898,67.0044939 61.0909227,104.870207 L64.871357,128.943575 L64.9465683,129.038836 C65.7248798,130.02463 68.6329062,130.062088 73.984368,129.320485 L74.4428808,129.256944 L71.0316179,105.292619 C66.8668355,75.9395085 63.0574284,48.7259296 59.6033978,23.6518939 L56.6938591,2.41991529 L56.4489672,2.31858221 C51.7325373,0.366984431 48.6494065,-0.069624212 47.1203343,1.12477435 L46.9603731,1.25264288 Z M55.8531874,3.07394326 L58.4455971,21.9913545 C62.455767,51.1270654 66.9496362,83.1748487 71.9272069,118.134723 L73.3989997,128.464904 L73.1569403,128.497479 C68.920186,129.047257 66.3748394,129.02139 65.751467,128.544283 L65.7378928,128.532493 L61.7609273,103.196271 C55.3190731,61.9745891 50.4413932,29.7611287 47.1279488,6.55635683 L46.7459719,3.87236833 L46.6487185,3.76643634 C46.2720013,3.35610194 46.5211858,2.76501034 47.684789,1.85608926 C48.7878046,0.994494744 51.383681,1.30779012 55.4051983,2.89439385 L55.8531874,3.07394326 Z" id="路径-23备份" fill="#000000" fill-rule="nonzero"></path>
                    </g>
                    <g id="编组-11" transform="translate(349.450567, 601.462500)">
                        <g id="路径-335">
                            <mask id="mask-32" fill="white">
                                <use xlink:href="#path-31"></use>
                            </mask>
                            <use id="蒙版" fill="#E32625" xlink:href="#path-31"></use>
                            <path d="M0.00144489505,98.5120547 C14.2801374,88.8436314 26.290615,85.4755098 36.0328778,88.4076901 C28.5553011,105.476968 21.6334348,121.388054 15.2672789,136.140947 C4.99007642,134.040655 -0.0985349003,121.497691 0.00144489505,98.5120547 Z" fill="#FFCF19" mask="url(#mask-32)"></path>
                            <ellipse id="椭圆形" fill="#FFFFFF" mask="url(#mask-32)" cx="37.8678788" cy="29.845058" rx="12.3862569" ry="12.4994681"></ellipse>
                            <path d="M34.0736447,24.5586681 C33.4567254,23.5546242 34.2831896,22.3025371 35.4094287,22.4477158 L35.5269587,22.4677861 L45.0327939,24.4883411 C45.7765561,24.6464347 46.252495,25.3830443 46.0958333,26.1336045 C45.9483869,26.8400141 45.293125,27.307014 44.5964662,27.2277071 L44.4654714,27.2063601 L38.108264,25.8544871 L39.7521222,28.5294676 C40.2223634,29.2947912 39.8557901,30.2900676 39.0308596,30.5745757 L38.9155636,30.6088783 L34.8043446,31.6431296 L39.4843421,35.740142 C40.0225936,36.2113699 40.1104155,37.0117588 39.7088768,37.5873632 L39.6220327,37.6993228 C39.1550728,38.242494 38.3619332,38.3311186 37.7915422,37.9259097 L37.6805967,37.8382718 L31.0022528,31.9915212 C30.1931054,31.2831296 30.466493,29.9728071 31.4496673,29.6311651 L31.5710313,29.5949182 L36.418228,28.3747502 L34.0736447,24.5586681 Z" id="路径-24" fill="#FFCF19" fill-rule="nonzero" mask="url(#mask-32)"></path>
                        </g>
                        <path d="M20.365711,52.9809643 C21.6188235,52.7935216 22.7852479,53.6667026 22.9709928,54.9312686 C23.149308,56.1452519 22.3590056,57.2786133 21.1868224,57.5331771 L21.038353,57.5603628 L3.18146713,60.2314259 C1.92835469,60.4188685 0.7619303,59.5456876 0.57618535,58.2811216 C0.397870198,57.0671382 1.18817256,55.9337768 2.36035575,55.679213 L2.50882517,55.6520274 L20.365711,52.9809643 Z" id="路径-336" fill="#FFFFFF" fill-rule="nonzero"></path>
                        <path d="M20.365711,64.5911298 C21.6188235,64.4036871 22.7852479,65.2768681 22.9709928,66.541434 C23.149308,67.7554174 22.3590056,68.8887788 21.1868224,69.1433426 L21.038353,69.1705283 L3.18146713,71.8415913 C1.92835469,72.029034 0.7619303,71.155853 0.57618535,69.891287 C0.397870198,68.6773037 1.18817256,67.5439423 2.36035575,67.2893785 L2.50882517,67.2621928 L20.365711,64.5911298 Z" id="路径-336备份" fill="#FFFFFF" fill-rule="nonzero"></path>
                        <path d="M61.4615585,15.4938168 L16.3066168,126.774021 C17.6306371,128.509913 20.0796164,129.377859 23.6535547,129.377859 C54.0265422,59.4225146 69.9853046,21.9214006 71.5298417,16.8745176 C67.0778823,13.9235383 63.7217879,13.4633047 61.4615585,15.4938168 Z" id="路径-25" fill="#FFFFFF"></path>
                        <path d="M61.1565251,15.4636419 L61.0772451,15.5348643 L15.7820084,127.160812 L15.9430834,127.371994 C17.321302,129.178945 19.7801415,130.094335 23.2870353,130.153354 L23.9534072,130.156406 L32.7594083,109.852011 C57.2409195,53.3334416 70.278984,22.5814017 71.9172593,17.4886742 L72.0699206,16.9942321 L71.7816977,16.8031836 C67.1765143,13.7506399 63.6080434,13.2612823 61.1565251,15.4636419 Z M70.6989462,17.2034783 L70.984262,17.3853713 C69.0138321,23.2789237 54.5277215,57.3571787 27.5736997,119.505657 L23.3549755,129.227593 L23.3011697,129.227593 C20.2820613,129.176887 18.1698832,128.467546 16.9386538,127.127642 L16.8342994,127.008484 L61.8432044,16.0882043 L61.766592,16.1551978 C63.7414897,14.3810178 66.6956784,14.6931818 70.6989462,17.2034783 Z" id="路径-25备份" fill="#000000" fill-rule="nonzero"></path>
                    </g>
                </g>
            </g>
        </g>
    </g>
</svg>